/* XPM */
static char *_0d17eabac0140e9ebb211fa2a0a2df6hFjFGEciKJOGYrwr[] = {
/* columns rows colors chars-per-pixel */
"64 64 8 1 ",
"  c None",
". c #99C855",
"X c #AED064",
"o c #83B94D",
"O c #E0EA81",
"+ c #669E46",
"@ c #56903B",
"# c white",
/* pixels */
"...X.o..OX.OX.Xo+@ @  @++@ @  @++@ @  @++@ @  @+...X.o..OX.OX.Xo",
"oXoXX.XXX.oXO.XOo+@o+@o.o+@o+@o.o+@o+@o.o+@o+@o.oXoXX.XXX.oXO.XO",
".XX.oX.oXX.XXX.XOX.XoX.oOX.XoX.oOX.XoX.oOX.XoX.o.XX.oX.oXX.XXX.X",
"XoXX.OX.X.o.X.o.X.o..XX.X.o..XX.X.o..XX.X.o..XX.XoXX.OX.X.o.X.o.",
"X..O.X.XOXXXoXX.X..O.X.XOXXXoXX.X..O.X.XOXXXoXX.X..O.X.XOXXXoXX.",
".o..XXX.XOXX.X.O.o..XXX.XOXX.X.O.o..XXX.XOXX.X.O.o..XXX.XOXX.X.O",
"X.X.o..o.X..oOX.X.X.o..o.X..oOX.X.X.o..o.X..oOX.X.X.o..o.X..oOX.",
"X.OX.X.XoX.XX..XX.OX.X.XoX.XX..XX.OX.X.XoX.XX..XX.OX.X.XoX.XX..X",
"XXX.X.X.XXXoX.X.XXX.X.X.XXXoX.X.XXX.X.X.XXXoX.X.XXX.X.X.XXXoX.X.",
"..XoX.XX.X..XX.X..XoX.XX.X..XX.X..XoX.XX.X..XX.X..XoX.XX.X..XX.X",
"X.OX.XX.o.X.O.XoX.OX.XX.o.X.O.XoX.OX.XX.o.X.O.XoX.OX.XX.o.X.O.Xo",
"o.X.oO.oXo.XXoX.o.X.oO.oXo.XXoX.o.X.oO.oXo.XXoX.o.X.oO.oXo.XXoX.",
".XXX.XX.XX.O.X.X.XXX.XX.XX.O.X.X.XXX.XX.XX.O.X.X.XXX.XX.XX.O.X.X",
"X.oXX..X.XX.XXX.X.oXX..X.XX.XXX.X.oXX..X.XX.XXX.X.oXX..X.XX.XXX.",
".X.XOXoXX.oXo.XO.X.XOXoXX.oXo.XO.X.XOXoXX.oXo.XO.X.XOXoXX.oXo.XO",
"oXX.X.X.oX.X.XOXoXX.X.X.oX.X.XOXoXX.X.X.oX.X.XOXoXX.X.X.oX.X.XOX",
"@OX..o..OX.OX.Xo...X.o..OX.OX.Xo...X.o..OX.OX.Xo...X.o..OX.OX.X+",
"@oXoX.XXX.oXO.XOoXoXX.XXX.oXO.XOoXoXX.XXX.oXO.XOoXoXX.XXX.oXXX.@",
"@oXXoX.oXX.XXX.X.XX.oX.oXX.XXX.X.XX.oX.oXX.XXX.X.XX.oX.oXX.XO.o@",
"++X..OX.X.o.X.o.XoXX.OX.X.o.X.o.XoXX.OX.X.o.X.o.XoXX.OX.X.o.Xoo ",
" +.O.X.XOXXXoXX.X..O.X.XOXXXoXX.X..O.X.XOXXXoXX.X..O.X.XOXXXoX+ ",
" @..XXX.XOXX.X.O.o..XXX.XOXX.X.O.o..XXX.XOXX.X.O.o..XXX.XOXX.Xo+",
" .X.o..o.X..oOX.X.X.o..o.X..oOX.X.X.o..o.X..oOX.X.X.o..o.X..oOX@",
"+.XX.X.XoX.XX..XX.OX.X.XoX.XX..XX.OX.X.XoX.XX..XX.OX.X.XoX.XX..+",
"@OX.X.X.XXXoX.X.XXX.X.X.XXXoX.X.XXX.X.X.XXXoX.X.XXX.X.X.XXXoX.X+",
"@oXoX.XX.X..XX.X..XoX.XX.X..XX.X..XoX.XX.X..XX.X..XoX.XX.X..XX.@",
"@oXX.XX.o.X.O.XoX.OX.XX.o.X.O.XoX.OX.XX.o.X.O.XoX.OX.XX.o.X.O.o@",
"++X.oO.oXo.XXoX.o.X.oO.oXo.XXoX.o.X.oO.oXo.XXoX.o.X.oO.oXo.XXoo ",
" +.O.XX.XX.O.X.X.XXX.XX.XX.O.X.X.XXX.XX.XX.O.X.X.XXX.XX.XX.OoX+ ",
" @..X..X.XX.XXX.X.oXX..X.XX.XXX.X.oXX..X.XX.XXX.X.oXX..X.XX..Xo+",
" .X.OXoXX.oXo.XO.X.XOXoXX.oXo.XO.X.XOXoXX.oXo.XO.X.XOXoXX.oXoOX@",
"+.XXX.X.oX.X.XOXoXX.X.X.oX.X.XOXoXX.X.X.oX.X.XOXoXX.X.X.oX.XX..+",
"@OX..o..OX.OX.Xo...X.o..OX.OX.Xo...X.o..OX.OX.Xo...X.o..OX.OX.X+",
"@oXoX.XXX.oXO.XOoXoXX.XXX.oXO.XOoXoXX.XXX.oXO.XOoXoXX.XXX.oXXX.@",
"@oXXoX.oXX.XXX.X.XX.oX.oXX.XXX.X.XX.oX.oXX.XXX.X.XX.oX.oXX.XO.o@",
"++X..OX.X.o.X.o.XoXX.OX.X.o.X.o.XoXX.OX.X.o.X.o.XoXX.OX.X.o.Xoo ",
" +.O.X.XOXXXoXX.X..O.X.XOXXXoXX.X..O.X.XOXXXoXX.X..O.X.XOXXXoX+ ",
" @..XXX.XOXX.X.O.o..XXX.XOXX.X.O.o..XXX.XOXX.X.O.o..XXX.XOXX.Xo+",
" .X.o..o.X..oOX.X.X.o..o.X..oOX.X.X.o..o.X..oOX.X.X.o..o.X..oOX@",
"+.XX.X.XoX.XX..XX.OX.X.XoX.XX..XX.OX.X.XoX.XX..XX.OX.X.XoX.XX..+",
"@OX.X.X.XXXoX.X.XXX.X.X.XXXoX.X.XXX.X.X.XXXoX.X.XXX.X.X.XXXoX.X+",
"@oXoX.XX.X..XX.X..XoX.XX.X..XX.X..XoX.XX.X..XX.X..XoX.XX.X..XX.@",
"@oXX.XX.o.X.O.XoX.OX.XX.o.X.O.XoX.OX.XX.o.X.O.XoX.OX.XX.o.X.O.o@",
"++X.oO.oXo.XXoX.o.X.oO.oXo.XXoX.o.X.oO.oXo.XXoX.o.X.oO.oXo.XXoo ",
" +.O.XX.XX.O.X.X.XXX.XX.XX.O.X.X.XXX.XX.XX.O.X.X.XXX.XX.XX.OoX+ ",
" @..X..X.XX.XXX.X.oXX..X.XX.XXX.X.oXX..X.XX.XXX.X.oXX..X.XX..Xo+",
" .X.OXoXX.oXo.XO.X.XOXoXX.oXo.XO.X.XOXoXX.oXo.XO.X.XOXoXX.oXoOX@",
"+.XXX.X.oX.X.XOXoXX.X.X.oX.X.XOXoXX.X.X.oX.X.XOXoXX.X.X.oX.XX..+",
"...X.o..OX.OX.Xo...X.o..OX.OX.Xo...X.o..OX.OX.Xo...X.o..OX.OX.Xo",
"oXoXX.XXX.oXO.XOoXoXX.XXX.oXO.XOoXoXX.XXX.oXO.XOoXoXX.XXX.oXO.XO",
".XX.oX.oXX.XXX.X.XX.oX.oXX.XXX.X.XX.oX.oXX.XXX.X.XX.oX.oXX.XXX.X",
"XoXX.OX.X.o.X.o.XoXX.OX.X.o.X.o.XoXX.OX.X.o.X.o.XoXX.OX.X.o.X.o.",
"X..O.X.XOXXXoXX.X..O.X.XOXXXoXX.X..O.X.XOXXXoXX.X..O.X.XOXXXoXX.",
".o..XXX.XOXX.X.O.o..XXX.XOXX.X.O.o..XXX.XOXX.X.O.o..XXX.XOXX.X.O",
"X.X.o..o.X..oOX.X.X.o..o.X..oOX.X.X.o..o.X..oOX.X.X.o..o.X..oOX.",
"X.OX.X.XoX.XX..XX.OX.X.XoX.XX..XX.OX.X.XoX.XX..XX.OX.X.XoX.XX..X",
"XXX.X.X.XXXoX.X.XXX.X.X.XXXoX.X.XXX.X.X.XXXoX.X.XXX.X.X.XXXoX.X.",
"..XoX.XX.X..XX.X..XoX.XX.X..XX.X..XoX.XX.X..XX.X..XoX.XX.X..XX.X",
"X.OX.XX.o.X.O.XoX.OX.XX.o.X.O.XoX.OX.XX.o.X.O.XoX.OX.XX.o.X.O.Xo",
"o.X.oO.oXo.XXoX.o.X.oO.oXo.XXoX.o.X.oO.oXo.XXoX.o.X.oO.oXo.XXoX.",
".XXX.XX.XX.O.X.XXX.O.XX.XX.O.XX.XX.O.XX.XX.O.XX..XXX.XX.XX.O.X.X",
"X.oXX..X.XX.XXX..XX.X..X.XX.X..X.XX.X..X.XX.X..XX.oXX..X.XX.XXX.",
".X.XOXoXX.oXo.XOX.oX@XoXX.oX@XoXX.oX@XoXX.oX@XoX.X.XOXoXX.oXo.XO",
"oXX.X.X.oX.X.XOX+@ @ @@++@ @ @@++@ @ @@++@ @ @@+oXX.X.X.oX.X.XOX"
};
