/* XPM */
static char *_5fff60812254269d3252f51e3489679Tfxu5Jf8d0JSxTOs[] = {
/* columns rows colors chars-per-pixel */
"32 32 6 1 ",
"  c #1C1F2B",
". c #262830",
"X c #303237",
"o c #323338",
"O c #444040",
"+ c #655C5B",
/* pixels */
"OX .  O+++O.. O+OX .  O+++O.. O+",
"OOX  ++++OOX O++OOX  ++++OOX O++",
"X.O+++++OOO.X++OX.O+++++OOO.X++O",
"X ++++++OOO.O+OOX ++++++OOO.O+OO",
" O+++++OOOoXOOOX O+++++OOOoXOOOX",
" ++++++OOOX.XX.  ++++++OOOX.XX. ",
" +++OOOXXX. .    +++OOOXXX. .   ",
"  OOOOOXX. X++OX  OOOOOXX. X++OX",
"O XOOOOXX..O++OOO XOOOOXX..O++OO",
"OX OOOOOX.O+++OOOX OOOOOX.O+++OO",
"XO  OOOOXXOO+OOXXO  OOOOXXOO+OOX",
"XX   XOXX.XOOOXXXX   XOXX.XOOOXX",
"X  X. XX OOOOXXXX  X. XX OOOOXXX",
"  ..X. OXXOOOXX.  ..X. OXXOOOXX.",
"   XOX  .XOOXX     XOX  .XOOXX  ",
"+O OX...   ..  .+O OX...   ..  .",
"++O.. O+OX .  O+++O.. O+OX .  O+",
"+OOX O++OOX  ++++OOX O++OOX  +++",
"OOO.X++OX.O+++++OOO.X++OX.O+++++",
"OOO.O+OOX ++++++OOO.O+OOX ++++++",
"OOoXOOOX O+++++OOOoXOOOX O+++++O",
"OOX.XX.  ++++++OOOX.XX.  ++++++O",
"XX. .    +++OOOXXX. .    +++OOOX",
"X. X++OX  OOOOOXX. X++OX  OOOOOX",
"X..O++OOO XOOOOXX..O++OOO XOOOOX",
"X.O+++OOOX OOOOOX.O+++OOOX OOOOO",
"XXOO+OOXXO  OOOOXXOO+OOXXO  OOOO",
"X.XOOOXXXX   XOXX.XOOOXXXX   XOX",
" OOOOXXXX  X. XX OOOOXXXX  X. XX",
"XXOOOXX.  ..X. OXXOOOXX.  ..X. O",
".XOOXX     XOX  .XOOXX     XOX  ",
"   ..  .+O OX...   ..  .+O OX..."
};
